<svg width="24" height="24" viewBox="0 0 24 24" fill="none" xmlns="http://www.w3.org/2000/svg">
<path d="M9 21.5C8.0975 21.5 7.25325 21.3295 6.46725 20.9885C5.68142 20.6475 4.99425 20.1828 4.40575 19.5943C3.81725 19.0058 3.3525 18.3186 3.0115 17.5328C2.6705 16.7468 2.5 15.9025 2.5 15C2.5 13.7333 2.83242 12.5721 3.49725 11.5162C4.16192 10.4606 5.05133 9.66675 6.1655 9.13475C6.486 8.46542 6.89525 7.88175 7.39325 7.38375C7.89142 6.88558 8.47192 6.4795 9.13475 6.1655C9.64625 5.06417 10.4286 4.17792 11.4817 3.50675C12.5349 2.83558 13.7077 2.5 15 2.5C15.9025 2.5 16.7468 2.6705 17.5328 3.0115C18.3186 3.3525 19.0058 3.81725 19.5943 4.40575C20.1828 4.99425 20.6475 5.68142 20.9885 6.46725C21.3295 7.25325 21.5 8.0975 21.5 9C21.5 10.3268 21.1693 11.4999 20.5078 12.5192C19.8461 13.5384 18.955 14.3204 17.8345 14.8652C17.514 15.5346 17.1063 16.1167 16.6115 16.6115C16.1167 17.1063 15.5346 17.514 14.8652 17.8345C14.3332 18.9358 13.5457 19.8221 12.5027 20.4932C11.4599 21.1644 10.2923 21.5 9 21.5ZM9.01925 20C9.66542 20 10.3019 19.8686 10.9287 19.6057C11.5557 19.3429 12.0859 18.9551 12.5192 18.4423C11.5269 18.5321 10.5913 18.4048 9.7125 18.0605C8.83367 17.7163 8.07117 17.2243 7.425 16.5845C6.77883 15.9383 6.28367 15.1775 5.9395 14.302C5.59517 13.4263 5.46792 12.4923 5.55775 11.5C5.05125 11.9397 4.665 12.4682 4.399 13.0855C4.133 13.7028 4 14.341 4 15C4 15.7 4.13333 16.3516 4.4 16.9548C4.66667 17.5579 5.025 18.0845 5.475 18.5345C5.93133 18.9845 6.46117 19.3413 7.0645 19.6048C7.66767 19.8683 8.31925 20 9.01925 20ZM12 17C12.7552 17 13.4369 16.8493 14.0453 16.548C14.6536 16.2467 15.1552 15.8781 15.55 15.4423C14.5475 15.5321 13.6068 15.4022 12.728 15.0527C11.8492 14.7034 11.0867 14.2089 10.4405 13.5692C9.79433 12.9231 9.29658 12.1622 8.94725 11.2865C8.59775 10.4108 8.46792 9.47175 8.55775 8.46925C8.10258 8.88325 7.73242 9.39608 7.44725 10.0078C7.16192 10.6193 7.01925 11.2833 7.01925 12C7.01925 12.7 7.14842 13.35 7.40675 13.95C7.66508 14.55 8.02433 15.075 8.4845 15.525C8.9345 15.9917 9.45792 16.3542 10.0548 16.6125C10.6516 16.8708 11.3 17 12 17ZM15.0193 14C15.3193 14 15.6068 13.975 15.8818 13.925C16.1568 13.875 16.4359 13.8 16.7193 13.7C17.0859 12.7 17.1401 11.7375 16.8818 10.8125C16.6234 9.8875 16.1776 9.10833 15.5443 8.475C14.9109 7.84167 14.1318 7.39583 13.2068 7.1375C12.2818 6.87917 11.3192 6.93333 10.3192 7.3C10.2192 7.58333 10.1442 7.8625 10.0942 8.1375C10.0442 8.4125 10.0192 8.7 10.0192 9C10.0192 9.7 10.1484 10.35 10.4067 10.95C10.6651 11.55 11.0276 12.075 11.4942 12.525C11.9442 12.9917 12.4693 13.3542 13.0693 13.6125C13.6693 13.8708 14.3193 14 15.0193 14ZM18.4615 12.5308C18.9487 12.0974 19.3269 11.5863 19.5962 10.9973C19.8654 10.4081 20 9.74233 20 9C20 8.3 19.8708 7.65 19.6125 7.05C19.3542 6.45 18.9917 5.925 18.525 5.475C18.075 5.00833 17.55 4.64583 16.95 4.3875C16.35 4.12917 15.7 4 15 4C14.282 4 13.6272 4.13625 13.0355 4.40875C12.4438 4.68108 11.9217 5.06408 11.4692 5.55775C12.4717 5.46792 13.4124 5.59775 14.2913 5.94725C15.1701 6.29658 15.9326 6.79108 16.5788 7.43075C17.2249 8.07692 17.7227 8.83783 18.072 9.7135C18.4213 10.5892 18.5512 11.5283 18.4615 12.5308Z" fill="#EE5A5F"/>
</svg>
