<svg width="24" height="24" viewBox="0 0 24 24" fill="none" xmlns="http://www.w3.org/2000/svg">
<path d="M4.72505 19.75C3.78272 19.75 2.98147 19.4173 2.3213 18.752C1.66097 18.0865 1.32055 17.2762 1.30005 16.321C1.30005 16.18 1.3068 16.0409 1.3203 15.9038C1.3338 15.7666 1.35722 15.6263 1.39055 15.4828L3.49055 7.08275C3.70938 6.23992 4.15488 5.55708 4.82705 5.03425C5.49922 4.51142 6.26522 4.25 7.12505 4.25H16.8751C17.7349 4.25 18.5009 4.51142 19.173 5.03425C19.8452 5.55708 20.2907 6.23992 20.5096 7.08275L22.6096 15.4828C22.6429 15.6263 22.6705 15.7708 22.6923 15.9163C22.7141 16.0618 22.7251 16.205 22.7251 16.346C22.7251 17.3012 22.3882 18.1073 21.7146 18.7645C21.0407 19.4215 20.2278 19.75 19.2758 19.75C18.6201 19.75 18.0148 19.5779 17.4598 19.2337C16.9046 18.8894 16.4835 18.423 16.1963 17.8345L15.4866 16.375C15.3841 16.1667 15.2302 16.0104 15.0251 15.9063C14.8199 15.8021 14.6032 15.75 14.375 15.75H9.62505C9.39855 15.75 9.1823 15.8013 8.9763 15.9038C8.7703 16.0064 8.61605 16.1635 8.51355 16.375L7.8038 17.8345C7.52313 18.4295 7.10305 18.8975 6.54355 19.2385C5.98405 19.5795 5.37788 19.75 4.72505 19.75ZM4.80255 18.25C5.16238 18.25 5.4923 18.1538 5.7923 17.9615C6.0923 17.7692 6.31863 17.5122 6.4713 17.1905L7.1713 15.7558C7.40147 15.2843 7.73913 14.9154 8.1843 14.6493C8.62947 14.3831 9.10972 14.25 9.62505 14.25H14.375C14.8944 14.25 15.3755 14.3887 15.8183 14.6663C16.2613 14.9439 16.6065 15.3103 16.8538 15.7655L17.5538 17.1905C17.7065 17.5122 17.9328 17.7692 18.2328 17.9615C18.5328 18.1538 18.8649 18.25 19.229 18.25C19.7659 18.25 20.2261 18.0702 20.6096 17.7105C20.9931 17.351 21.1899 16.9058 21.2001 16.375C21.2001 16.366 21.1802 16.1884 21.1406 15.8423L19.0406 7.46725C18.9111 6.96592 18.6472 6.55442 18.2491 6.23275C17.8511 5.91092 17.3931 5.75 16.8751 5.75H7.12505C6.60022 5.75 6.1363 5.91092 5.7333 6.23275C5.3303 6.55442 5.07238 6.96592 4.95955 7.46725L2.85955 15.8423C2.83272 15.9294 2.81288 16.0987 2.80005 16.35C2.80005 16.8873 2.99655 17.3383 3.38955 17.703C3.78238 18.0677 4.25338 18.25 4.80255 18.25ZM13.5 10.8845C13.7449 10.8845 13.9535 10.7983 14.126 10.626C14.2984 10.4535 14.3846 10.2448 14.3846 10C14.3846 9.75517 14.2984 9.5465 14.126 9.374C13.9535 9.20167 13.7449 9.1155 13.5 9.1155C13.2552 9.1155 13.0466 9.20167 12.8741 9.374C12.7017 9.5465 12.6155 9.75517 12.6155 10C12.6155 10.2448 12.7017 10.4535 12.8741 10.626C13.0466 10.7983 13.2552 10.8845 13.5 10.8845ZM15.5001 8.8845C15.7449 8.8845 15.9535 8.79833 16.126 8.626C16.2984 8.4535 16.3846 8.24483 16.3846 8C16.3846 7.75517 16.2984 7.5465 16.126 7.374C15.9535 7.20167 15.7449 7.1155 15.5001 7.1155C15.2552 7.1155 15.0466 7.20167 14.8741 7.374C14.7017 7.5465 14.6155 7.75517 14.6155 8C14.6155 8.24483 14.7017 8.4535 14.8741 8.626C15.0466 8.79833 15.2552 8.8845 15.5001 8.8845ZM15.5001 12.8845C15.7449 12.8845 15.9535 12.7983 16.126 12.626C16.2984 12.4535 16.3846 12.2448 16.3846 12C16.3846 11.7552 16.2984 11.5465 16.126 11.374C15.9535 11.2017 15.7449 11.1155 15.5001 11.1155C15.2552 11.1155 15.0466 11.2017 14.8741 11.374C14.7017 11.5465 14.6155 11.7552 14.6155 12C14.6155 12.2448 14.7017 12.4535 14.8741 12.626C15.0466 12.7983 15.2552 12.8845 15.5001 12.8845ZM17.5001 10.8845C17.7449 10.8845 17.9535 10.7983 18.126 10.626C18.2984 10.4535 18.3846 10.2448 18.3846 10C18.3846 9.75517 18.2984 9.5465 18.126 9.374C17.9535 9.20167 17.7449 9.1155 17.5001 9.1155C17.2552 9.1155 17.0466 9.20167 16.8741 9.374C16.7017 9.5465 16.6156 9.75517 16.6156 10C16.6156 10.2448 16.7017 10.4535 16.8741 10.626C17.0466 10.7983 17.2552 10.8845 17.5001 10.8845ZM8.49955 12.3463C8.67172 12.3463 8.81422 12.2899 8.92705 12.1773C9.03988 12.0646 9.0963 11.9222 9.0963 11.75V10.5962H10.25C10.4222 10.5962 10.5646 10.5399 10.6773 10.4273C10.79 10.3148 10.8463 10.1725 10.8463 10.0005C10.8463 9.82833 10.79 9.68583 10.6773 9.573C10.5646 9.46017 10.4222 9.40375 10.25 9.40375H9.0963V8.25C9.0963 8.07783 9.03997 7.93542 8.9273 7.82275C8.8148 7.71008 8.67255 7.65375 8.50055 7.65375C8.32838 7.65375 8.18588 7.71008 8.07305 7.82275C7.96022 7.93542 7.9038 8.07783 7.9038 8.25V9.40375H6.75005C6.57788 9.40375 6.43547 9.46008 6.3228 9.57275C6.21013 9.68525 6.1538 9.8275 6.1538 9.9995C6.1538 10.1717 6.21013 10.3142 6.3228 10.427C6.43547 10.5398 6.57788 10.5962 6.75005 10.5962H7.9038V11.75C7.9038 11.9222 7.96013 12.0646 8.0728 12.1773C8.1853 12.2899 8.32755 12.3463 8.49955 12.3463Z" fill="#EE5A5F"/>
</svg>
