<svg width="24" height="24" viewBox="0 0 24 24" fill="none" xmlns="http://www.w3.org/2000/svg">
<path d="M10.1922 21.3845C9.69523 21.3845 9.26973 21.2075 8.91573 20.8535C8.56173 20.4995 8.38473 20.074 8.38473 19.577V18.75C8.38473 18.5375 8.45656 18.3593 8.60023 18.2155C8.74406 18.0718 8.92231 18 9.13498 18C9.34748 18 9.52556 18.0718 9.66923 18.2155C9.81273 18.3593 9.88448 18.5375 9.88448 18.75V19.577C9.88448 19.6667 9.9134 19.7403 9.97123 19.798C10.0289 19.8557 10.1026 19.8845 10.1922 19.8845H19.577C19.6666 19.8845 19.7403 19.8557 19.798 19.798C19.8556 19.7403 19.8845 19.6667 19.8845 19.577V10.1922C19.8845 10.1026 19.8556 10.0289 19.798 9.97124C19.7403 9.91341 19.6666 9.88449 19.577 9.88449H18.75C18.5375 9.88449 18.3593 9.81266 18.2155 9.66899C18.0718 9.52516 18 9.34691 18 9.13424C18 8.92174 18.0718 8.74366 18.2155 8.59999C18.3593 8.45649 18.5375 8.38474 18.75 8.38474H19.577C20.074 8.38474 20.4995 8.56174 20.8535 8.91574C21.2075 9.26974 21.3845 9.69524 21.3845 10.1922V19.577C21.3845 20.074 21.2075 20.4995 20.8535 20.8535C20.4995 21.2075 20.074 21.3845 19.577 21.3845H10.1922ZM9.11723 15.6152C7.30706 15.6152 5.7709 14.9848 4.50873 13.724C3.24656 12.463 2.61548 10.9274 2.61548 9.11724C2.61548 7.30708 3.2459 5.77091 4.50673 4.50874C5.76773 3.24658 7.30331 2.61549 9.11348 2.61549C10.9236 2.61549 12.4598 3.24591 13.722 4.50674C14.9841 5.76774 15.6152 7.30333 15.6152 9.11349C15.6152 10.9237 14.9848 12.4598 13.724 13.722C12.463 14.9842 10.9274 15.6152 9.11723 15.6152ZM9.11548 14.1155C10.4988 14.1155 11.678 13.628 12.653 12.653C13.628 11.678 14.1155 10.4988 14.1155 9.11549C14.1155 7.73216 13.628 6.55299 12.653 5.57799C11.678 4.60299 10.4988 4.11549 9.11548 4.11549C7.73215 4.11549 6.55298 4.60299 5.57798 5.57799C4.60298 6.55299 4.11548 7.73216 4.11548 9.11549C4.11548 10.4988 4.60298 11.678 5.57798 12.653C6.55298 13.628 7.73215 14.1155 9.11548 14.1155Z" fill="#EE5A5F"/>
</svg>
